<?xml version="1.0" encoding="UTF-8"?>
<!DOCTYPE svg PUBLIC "-//W3C//DTD SVG 1.1//EN" "http://www.w3.org/Graphics/SVG/1.1/DTD/svg11.dtd">
<svg xmlns="http://www.w3.org/2000/svg" version="1.1" width="64px" height="64px" style="shape-rendering:geometricPrecision; text-rendering:geometricPrecision; image-rendering:optimizeQuality; fill-rule:evenodd; clip-rule:evenodd" xmlns:xlink="http://www.w3.org/1999/xlink">
<g><path style="opacity:0.871" fill="#131210" d="M 1.5,-0.5 C 14.8333,-0.5 28.1667,-0.5 41.5,-0.5C 41.9867,0.473444 42.4867,1.47344 43,2.5C 43.6667,14.1667 43.6667,25.8333 43,37.5C 42.0642,41.2074 40.2308,44.3741 37.5,47C 39.0548,48.2893 40.7215,48.956 42.5,49C 45.372,46.4634 47.872,43.6301 50,40.5C 49.53,37.2516 49.03,33.9182 48.5,30.5C 48.6485,23.8482 51.9819,21.0148 58.5,22C 60.3231,22.9973 61.9897,24.1639 63.5,25.5C 63.5,29.1667 63.5,32.8333 63.5,36.5C 60.2594,42.1506 58.5928,48.3172 58.5,55C 56.2511,55.8632 54.4178,55.3632 53,53.5C 48.4292,61.6246 41.9292,63.6246 33.5,59.5C 31.79,60.8872 30.1233,62.2206 28.5,63.5C 20.1667,63.5 11.8333,63.5 3.5,63.5C 0.333858,57.4918 1.00053,51.9918 5.5,47C 3.26589,44.9373 1.26589,42.7706 -0.5,40.5C -0.5,27.5 -0.5,14.5 -0.5,1.5C 0.5,1.16667 1.16667,0.5 1.5,-0.5 Z"/></g>
<g><path style="opacity:1" fill="#dadde0" d="M 2.5,1.5 C 4.16667,1.5 5.83333,1.5 7.5,1.5C 7.5,5.83333 7.5,10.1667 7.5,14.5C 5.5,14.5 3.5,14.5 1.5,14.5C 1.23071,10.0685 1.56404,5.7352 2.5,1.5 Z"/></g>
<g><path style="opacity:1" fill="#7b7d7f" d="M 10.5,1.5 C 10.5,5.5 10.5,9.5 10.5,13.5C 12.1667,13.5 13.8333,13.5 15.5,13.5C 15.5,9.5 15.5,5.5 15.5,1.5C 16.4849,5.63441 16.8182,9.96775 16.5,14.5C 14.1667,14.5 11.8333,14.5 9.5,14.5C 9.18178,9.96775 9.51511,5.63441 10.5,1.5 Z"/></g>
<g><path style="opacity:1" fill="#e4e7eb" d="M 10.5,1.5 C 12.1667,1.5 13.8333,1.5 15.5,1.5C 15.5,5.5 15.5,9.5 15.5,13.5C 13.8333,13.5 12.1667,13.5 10.5,13.5C 10.5,9.5 10.5,5.5 10.5,1.5 Z"/></g>
<g><path style="opacity:1" fill="#e4e7eb" d="M 23.5,1.5 C 23.5,5.5 23.5,9.5 23.5,13.5C 21.8333,13.5 20.1667,13.5 18.5,13.5C 18.5,9.5 18.5,5.5 18.5,1.5C 20.1667,1.5 21.8333,1.5 23.5,1.5 Z"/></g>
<g><path style="opacity:1" fill="#9e9fa2" d="M 23.5,1.5 C 24.4849,5.63441 24.8182,9.96775 24.5,14.5C 22.2646,14.7947 20.2646,14.4614 18.5,13.5C 20.1667,13.5 21.8333,13.5 23.5,13.5C 23.5,9.5 23.5,5.5 23.5,1.5 Z"/></g>
<g><path style="opacity:1" fill="#e4e7eb" d="M 26.5,1.5 C 28.5,1.5 30.5,1.5 32.5,1.5C 32.5,5.5 32.5,9.5 32.5,13.5C 30.5,13.5 28.5,13.5 26.5,13.5C 26.5,9.5 26.5,5.5 26.5,1.5 Z"/></g>
<g><path style="opacity:1" fill="#dadde1" d="M 34.5,1.5 C 36.4672,1.26057 38.3005,1.59391 40,2.5C 40.4988,6.48617 40.6655,10.4862 40.5,14.5C 38.5,14.5 36.5,14.5 34.5,14.5C 34.5,10.1667 34.5,5.83333 34.5,1.5 Z"/></g>
<g><path style="opacity:1" fill="#94979d" d="M 1.5,16.5 C 14.5171,16.1675 27.5171,16.5009 40.5,17.5C 34,17.8333 27.5,18.1667 21,18.5C 14.1307,18.4966 7.63066,17.83 1.5,16.5 Z"/></g>
<g><path style="opacity:1" fill="#ac7543" d="M 1.5,20.5 C 3.85684,20.3367 6.19018,20.5034 8.5,21C 7.283,22.6477 6.44966,24.481 6,26.5C 5.66667,31.8333 5.33333,37.1667 5,42.5C 3.61524,41.4495 2.61524,40.1161 2,38.5C 1.50051,32.5092 1.33385,26.5092 1.5,20.5 Z"/></g>
<g><path style="opacity:1" fill="#9e6b3e" d="M 14.5,21.5 C 17.6868,20.1944 21.0202,20.1944 24.5,21.5C 21.1631,22.6658 17.8298,22.6658 14.5,21.5 Z"/></g>
<g><path style="opacity:1" fill="#ac7543" d="M 29.5,21.5 C 32.9619,20.5184 36.6286,20.185 40.5,20.5C 40.6662,26.5092 40.4995,32.5092 40,38.5C 39.2515,40.3325 38.2515,41.9991 37,43.5C 38.1422,34.7557 35.6422,27.4224 29.5,21.5 Z"/></g>
<g><path style="opacity:1" fill="#e3c5aa" d="M 10.5,21.5 C 15.5688,23.7708 20.9022,25.1041 26.5,25.5C 27.2508,24.624 27.7508,23.624 28,22.5C 31.1501,25.4295 30.3167,26.9295 25.5,27C 23.5544,31.5523 24.8877,33.0523 29.5,31.5C 30.1667,30.1667 30.8333,28.8333 31.5,27.5C 35.9306,33.6494 35.2639,39.1494 29.5,44C 9.49295,47.8339 3.15961,40.3339 10.5,21.5 Z"/></g>
<g><path style="opacity:1" fill="#221d18" d="M 10.5,24.5 C 12.4586,25.871 14.6252,26.871 17,27.5C 17.7247,32.5888 16.0581,33.5888 12,30.5C 11.187,28.5643 10.687,26.5643 10.5,24.5 Z"/></g>
<g><path style="opacity:1" fill="#abafb6" d="M 53.5,24.5 C 53.373,29.657 53.5396,34.9904 54,40.5C 51.0411,35.1223 50.8744,29.789 53.5,24.5 Z"/></g>
<g><path style="opacity:1" fill="#aaafb5" d="M 58.5,25.5 C 60.8837,26.4251 61.8837,28.2585 61.5,31C 61.1235,34.7962 59.9568,38.2962 58,41.5C 58.5872,38.4342 59.0872,35.2675 59.5,32C 59.3473,29.7841 59.0139,27.6175 58.5,25.5 Z"/></g>
<g><path style="opacity:1" fill="#98734e" d="M 26.5,28.5 C 28.337,28.6395 28.6704,29.3061 27.5,30.5C 26.7025,30.0431 26.3691,29.3764 26.5,28.5 Z"/></g>
<g><path style="opacity:1" fill="#969aa0" d="M 55.5,26.5 C 56.1174,26.6107 56.6174,26.944 57,27.5C 57.8902,30.7055 57.5569,33.7055 56,36.5C 55.5017,33.1832 55.335,29.8499 55.5,26.5 Z"/></g>
<g><path style="opacity:1" fill="#16110f" d="M 16.5,36.5 C 19.8333,36.5 23.1667,36.5 26.5,36.5C 25.3411,42.5664 22.1744,43.8998 17,40.5C 16.51,39.2068 16.3433,37.8734 16.5,36.5 Z"/></g>
<g><path style="opacity:1" fill="#d26b5a" d="M 18.5,39.5 C 20.0348,38.2121 21.7015,38.2121 23.5,39.5C 21.8327,40.6664 20.166,40.6664 18.5,39.5 Z"/></g>
<g><path style="opacity:1" fill="#c2a891" d="M 50.5,42.5 C 58.299,42.2209 58.9656,43.5542 52.5,46.5C 50.8888,45.6798 50.2222,44.3464 50.5,42.5 Z"/></g>
<g><path style="opacity:1" fill="#ecc969" d="M 14.5,46.5 C 15.9187,47.4511 17.5853,47.7845 19.5,47.5C 19.5,48.5 19.5,49.5 19.5,50.5C 16.7212,50.7214 14.0545,50.388 11.5,49.5C 11.44,48.9569 11.1067,48.6236 10.5,48.5C 9.52577,50.7427 9.19244,53.076 9.5,55.5C 8.02218,55.238 6.68884,55.5713 5.5,56.5C 7.39605,57.4656 9.39605,57.7989 11.5,57.5C 11.5,58.8333 11.5,60.1667 11.5,61.5C 4.99991,62.5013 2.49991,59.8347 4,53.5C 5.83846,48.19 9.33846,45.8567 14.5,46.5 Z"/></g>
<g><path style="opacity:1" fill="#eac768" d="M 30.5,50.5 C 27.8333,50.5 25.1667,50.5 22.5,50.5C 22.5,49.5 22.5,48.5 22.5,47.5C 24.4147,47.7845 26.0813,47.4511 27.5,46.5C 29.5983,45.0374 31.5983,45.2041 33.5,47C 36.9956,49.3295 39.9956,52.1629 42.5,55.5C 43.4931,51.9989 45.4931,49.1655 48.5,47C 49.9961,46.4926 51.1627,46.9926 52,48.5C 51.2527,50.9755 49.9194,53.3089 48,55.5C 43.9944,60.1659 39.4944,60.6659 34.5,57C 33.4267,55.7496 33.4267,54.4162 34.5,53C 33.6815,51.6812 32.6815,50.5145 31.5,49.5C 30.8933,49.6236 30.56,49.9569 30.5,50.5 Z"/></g>
<g><path style="opacity:1" fill="#80868e" d="M 55.5,46.5 C 56.7251,47.1522 57.3917,48.3189 57.5,50C 57.1667,51.1667 56.8333,52.3333 56.5,53.5C 55.5258,51.2573 55.1924,48.924 55.5,46.5 Z"/></g>
<g><path style="opacity:1" fill="#69592e" d="M 11.5,49.5 C 10.8333,51.5 10.1667,53.5 9.5,55.5C 9.19244,53.076 9.52577,50.7427 10.5,48.5C 11.1067,48.6236 11.44,48.9569 11.5,49.5 Z"/></g>
<g><path style="opacity:1" fill="#8d783e" d="M 14.5,46.5 C 16.5,46.5 18.5,46.5 20.5,46.5C 20.5,48.1667 20.5,49.8333 20.5,51.5C 16.9878,52.0545 13.9878,51.3878 11.5,49.5C 14.0545,50.388 16.7212,50.7214 19.5,50.5C 19.5,49.5 19.5,48.5 19.5,47.5C 17.5853,47.7845 15.9187,47.4511 14.5,46.5 Z"/></g>
<g><path style="opacity:1" fill="#7f6c38" d="M 27.5,46.5 C 26.0813,47.4511 24.4147,47.7845 22.5,47.5C 22.5,48.5 22.5,49.5 22.5,50.5C 25.1667,50.5 27.8333,50.5 30.5,50.5C 27.7131,51.4767 24.7131,51.81 21.5,51.5C 21.5,49.8333 21.5,48.1667 21.5,46.5C 23.5,46.5 25.5,46.5 27.5,46.5 Z"/></g>
<g><path style="opacity:1" fill="#a4a8ae" d="M 12.5,53.5 C 19.1998,53.17 25.8665,53.5033 32.5,54.5C 29.1667,54.8333 25.8333,55.1667 22.5,55.5C 18.7614,55.4864 15.428,54.8197 12.5,53.5 Z"/></g>
<g><path style="opacity:1" fill="#d0b49c" d="M 13.5,57.5 C 14.8333,57.5 16.1667,57.5 17.5,57.5C 17.5,58.8333 17.5,60.1667 17.5,61.5C 16.1667,61.5 14.8333,61.5 13.5,61.5C 13.5,60.1667 13.5,58.8333 13.5,57.5 Z"/></g>
<g><path style="opacity:1" fill="#9ba3ad" d="M 19.5,57.5 C 23.1817,57.3347 26.8484,57.5014 30.5,58C 27.4858,61.0341 23.8191,62.2008 19.5,61.5C 19.5,60.1667 19.5,58.8333 19.5,57.5 Z"/></g>
</svg>
